<svg width="35" height="38" viewBox="0 0 35 38" fill="none" xmlns="http://www.w3.org/2000/svg">
    <path d="M9.85359 1.03788C8.27621 1.19282 6.5704 1.77771 5.05304 2.68645C0.956025 5.09999 0.969984 9.4748 1.00628 10.6767C1.11376 14.2754 3.46867 24.8648 3.46867 24.8648C3.53428 25.7079 4.57982 32.0482 5.18984 34.0639C5.83056 36.1759 6.84121 37.3638 10.9955 36.9004C15.5447 36.5653 16.3041 35.6622 16.2273 31.5847C15.99 18.8972 16.0487 14.7374 16.265 12.9618C16.3013 10.3026 16.272 4.43554 14.2075 2.22999C13.3113 1.27379 11.5873 0.867575 9.85359 1.03788ZM11.283 35.5673C7.45122 35.7557 6.93892 35.4193 6.33728 33.8307C6.19211 33.4469 5.90036 32.3148 5.66585 31.3097C5.08514 28.8445 4.33414 22.3619 4.33414 22.3619C4.37183 18.0485 5.04466 11.4696 8.66148 9.85309L8.7564 9.80982L9.02861 9.89217C12.376 10.8805 13.6882 15.2092 14.1921 18.9587C14.5704 22.0325 14.9194 28.1089 14.9319 31.6364C14.9375 32.9778 15.514 35.3635 11.283 35.5673ZM15.0687 12.7036C15.0352 13.2759 14.5425 14.9356 14.5425 14.9356C13.7663 12.2066 12.3495 9.73862 9.8187 8.78521L9.58418 6.37447L8.77176 6.45264L8.28877 6.5001L7.47635 6.58106L7.70109 8.88153C5.01256 10.3877 3.92095 14.0855 3.53009 17.6981C3.53009 17.6981 2.40778 12.8362 2.2975 10.5776C2.23887 9.37708 2.52783 5.58298 5.68539 3.82273C7.10224 3.03264 8.59029 2.4673 9.98202 2.33189C10.941 2.23697 12.3272 2.22999 13.1968 3.06196C14.4392 4.24848 15.2111 9.73583 15.0687 12.7036Z" fill="#0D2946" stroke="#0D2946" stroke-width="0.5"/>
    <path d="M30.3439 2.68647C28.8266 1.77773 27.1208 1.19284 25.5434 1.03789C23.811 0.867593 22.0857 1.27241 21.1909 2.23001C19.1263 4.43555 19.0956 10.3026 19.1333 12.9618C19.3483 14.7374 19.4069 18.8972 19.1696 31.5847C19.0914 35.6622 19.8522 36.564 24.4015 36.9004C28.5558 37.3638 29.5664 36.1745 30.2071 34.0639C30.8171 32.0496 31.8627 25.7079 31.9269 24.8648C31.9269 24.8648 34.2832 14.2768 34.3893 10.6767C34.427 9.47481 34.4409 5.10001 30.3439 2.68647ZM29.7297 31.3111C29.4952 32.3162 29.2035 33.4469 29.0597 33.8322C28.4566 35.4207 27.9457 35.7571 24.1139 35.5687C19.8829 35.3649 20.4608 32.9793 20.4664 31.6378C20.4776 28.1103 20.8266 22.0339 21.2049 18.9601C21.7088 15.2106 23.0209 10.8819 26.3684 9.89359L26.6406 9.81123L26.7341 9.8545C30.3509 11.4724 31.0237 18.0499 31.0628 22.3633C31.0628 22.3633 30.3104 28.8459 29.7297 31.3111ZM33.0995 10.5776C32.9878 12.8362 31.8669 17.6982 31.8669 17.6982C31.4746 14.0855 30.383 10.3877 27.6959 8.88155L27.9192 6.58108L27.1068 6.50012L26.6238 6.45265L25.8128 6.37448L25.5783 8.78523C23.0475 9.73864 21.6306 12.2066 20.8545 14.9356C20.8545 14.9356 20.3617 13.2759 20.3282 12.7036C20.1858 9.73585 20.9578 4.2485 22.2001 3.06197C23.0698 2.23001 24.4559 2.23699 25.4149 2.33191C26.8081 2.46731 28.2947 3.03266 29.7116 3.82275C32.8691 5.583 33.1567 9.3771 33.0995 10.5776Z" fill="#0D2946" stroke="#0D2946" stroke-width="0.5"/>
</svg>