<svg width="38" height="35" viewBox="0 0 38 35" fill="none" xmlns="http://www.w3.org/2000/svg">
    <path d="M1 30L7 33L13 30L19 33L25.5 30L31.5 33L37 30" stroke="#0D2946" stroke-width="2"/>
    <path d="M1 23L7 26L13 23L19 26L25.5 23L31.5 26L37 23" stroke="#0D2946" stroke-width="2"/>
    <path d="M11.0107 24V6.87755C11.0105 4.5 11.9761 1 17.4464 1M17.4464 1C18.6529 1 20.53 1 19.8595 1H17.4464Z" stroke="#0D2946" stroke-width="2"/>
    <path d="M25.0107 24V6.87755C25.0105 4.5 25.9761 1 31.4464 1M31.4464 1C32.6529 1 34.53 1 33.8595 1H31.4464Z" stroke="#0D2946" stroke-width="2"/>
    <path d="M11 12H25" stroke="#0D2946" stroke-width="2"/>
    <path d="M11 18H25" stroke="#0D2946" stroke-width="2"/>
</svg>