<svg width="48" height="48" viewBox="0 0 48 48" fill="none" xmlns="http://www.w3.org/2000/svg">
    <rect width="48" height="48" fill="white"/>
    <path d="M11.0534 25.177C10.89 23.3798 11.1026 21.5683 11.6776 19.8577C12.2526 18.1472 13.1775 16.5751 14.3933 15.2415C15.6091 13.908 17.0892 12.8421 18.7395 12.1119C20.3897 11.3817 22.174 11.003 23.9786 11C25.7832 10.997 27.5686 11.3698 29.2213 12.0946C30.8739 12.8194 32.3576 13.8803 33.5778 15.2099C34.798 16.5394 35.728 18.1084 36.3087 19.8171C36.8893 21.5257 37.1079 23.3365 36.9504 25.1342" stroke="#0D2946" stroke-width="2"/>
    <path d="M6 30L12 33L18 30L24 33L30.5 30L36.5 33L42 30" stroke="#0D2946" stroke-width="2"/>
    <path d="M6 23L12 26L18 23L24 26L30.5 23L36.5 26L42 23" stroke="#0D2946" stroke-width="2"/>
    <path d="M24 7.5V2" stroke="#0D2946" stroke-width="2"/>
    <path d="M11.4075 13.29L7 10" stroke="#0D2946" stroke-width="2"/>
    <path d="M37.0007 13.29L41.4082 10" stroke="#0D2946" stroke-width="2"/>
</svg>