<svg width="33" height="32" viewBox="0 0 33 32" fill="none" xmlns="http://www.w3.org/2000/svg">
    <path d="M23 9.5H21.5V6.5C21.5 2.9 18.6 0 15 0H6.5C2.9 0 0 2.9 0 6.5V32H2V6.5C2 4 4 2 6.5 2H15C17.5 2 19.5 4 19.5 6.5V9.5H18.2L7.8 15.8V18.5H32.6V15.6L23 9.5ZM10.4 16.5L18.7 11.5H22.3L30.1 16.5H10.4Z" fill="#0D2946"/>
    <path d="M13 21.5H10V24.5H13V21.5Z" fill="#0D2946"/>
    <path d="M19 21.5H16V24.5H19V21.5Z" fill="#0D2946"/>
    <path d="M25 21.5H22V24.5H25V21.5Z" fill="#0D2946"/>
    <path d="M31 21.5H28V24.5H31V21.5Z" fill="#0D2946"/>
    <path d="M13 27.5H10V30.5H13V27.5Z" fill="#0D2946"/>
    <path d="M19 27.5H16V30.5H19V27.5Z" fill="#0D2946"/>
    <path d="M25 27.5H22V30.5H25V27.5Z" fill="#0D2946"/>
    <path d="M31 27.5H28V30.5H31V27.5Z" fill="#0D2946"/>
</svg>