<svg width="48" height="48" viewBox="0 0 48 48" fill="none" xmlns="http://www.w3.org/2000/svg">
    <g clip-path="url(#clip0)">
        <path d="M20.9115 17.1464L21.3882 16.8537L21.3882 16.2942L21.388 10.4819C21.388 10.4819 21.388 10.4818 21.388 10.4818C21.3882 8.78664 21.7438 7.24595 22.445 5.84348C23.1178 4.49976 23.8159 4.01767 24.4578 3.93132C25.1002 4.01762 25.798 4.49944 26.4699 5.84287C27.1711 7.24535 27.527 8.78636 27.5276 10.4817C27.5276 10.4818 27.5276 10.4819 27.5276 10.4821L27.5275 16.3305L27.5275 16.8842L27.9968 17.178L43.4508 26.8549L42.9164 30.5923L28.8053 26.4862L27.5259 26.1139L27.5259 27.4464L27.5263 36.8558L27.5264 37.4364L28.0306 37.7243L32.4307 40.236L32.4306 43.4142L24.5987 42.2954L24.4573 42.2752L24.3159 42.2954L16.5018 43.4119L16.4853 40.236L20.8846 37.7243L21.3888 37.4365V36.8559L21.3888 27.4467V26.1143L20.1094 26.4865L6.0217 30.5858L6.02181 26.2899L20.9115 17.1464Z" stroke="#0D2946" stroke-width="2"/>
    </g>
    <defs>
        <clipPath id="clip0">
            <rect width="48" height="48" fill="white"/>
        </clipPath>
    </defs>
</svg>