<svg width="34" height="33" viewBox="0 0 34 33" fill="none" xmlns="http://www.w3.org/2000/svg">
    <path d="M1 18.6761H33.3048" stroke="#0D2946" stroke-width="2"/>
    <path d="M26.295 29.3428H8.31406C7.4736 29.3428 6.64137 29.1773 5.86489 28.8557C5.0884 28.534 4.38287 28.0626 3.78858 27.4683C3.19428 26.874 2.72286 26.1685 2.40123 25.392C2.0796 24.6155 1.91406 23.7833 1.91406 22.9428L1.91406 18.3714" stroke="#0D2946" stroke-width="2"/>
    <path d="M25.9912 29.3428C26.8317 29.3428 27.6639 29.1772 28.4404 28.8556C29.2169 28.534 29.9224 28.0626 30.5167 27.4683C31.111 26.874 31.5824 26.1684 31.904 25.3919C32.2257 24.6155 32.3912 23.7832 32.3912 22.9428L32.3912 18.6761" stroke="#0D2946" stroke-width="2"/>
    <path d="M4.04847 18.6762L4.04847 4.04C4.04847 3.64078 4.13124 3.24547 4.29205 2.87664C4.45287 2.50781 4.68858 2.17269 4.98572 1.8904C5.28287 1.6081 5.63564 1.38418 6.02388 1.23141C6.41212 1.07863 6.82824 1 7.24847 1L9.53418 1" stroke="#0D2946" stroke-width="2"/>
    <path d="M14.4102 4.04753C14.4102 3.64731 14.3345 3.25101 14.1874 2.88126C14.0404 2.5115 13.8249 2.17554 13.5532 1.89254C13.2816 1.60954 12.959 1.38506 12.6041 1.2319C12.2491 1.07874 11.8687 0.999912 11.4844 0.999912L9.53397 0.999912" stroke="#0D2946" stroke-width="2"/>
    <path d="M8.92285 32.9999V29.3428" stroke="#0D2946" stroke-width="2"/>
    <path d="M25.3818 32.9999V29.3428" stroke="#0D2946" stroke-width="2"/>
    <mask id="path-8-inside-1" fill="white">
    <path d="M20.504 9.53339C20.504 8.73296 20.3463 7.94036 20.04 7.20085C19.7337 6.46134 19.2847 5.78941 18.7187 5.22341C18.1527 4.65741 17.4808 4.20844 16.7413 3.90213C16.0018 3.59581 15.2092 3.43816 14.4087 3.43816C13.6083 3.43816 12.8157 3.59581 12.0762 3.90213C11.3367 4.20844 10.6647 4.65742 10.0987 5.22341C9.53273 5.78941 9.08376 6.46134 8.77745 7.20085C8.47113 7.94036 8.31348 8.73296 8.31348 9.53339L14.4087 9.53339H20.504Z"/>
    </mask>
    <path d="M20.504 9.53339C20.504 8.73296 20.3463 7.94036 20.04 7.20085C19.7337 6.46134 19.2847 5.78941 18.7187 5.22341C18.1527 4.65741 17.4808 4.20844 16.7413 3.90213C16.0018 3.59581 15.2092 3.43816 14.4087 3.43816C13.6083 3.43816 12.8157 3.59581 12.0762 3.90213C11.3367 4.20844 10.6647 4.65742 10.0987 5.22341C9.53273 5.78941 9.08376 6.46134 8.77745 7.20085C8.47113 7.94036 8.31348 8.73296 8.31348 9.53339L14.4087 9.53339H20.504Z" stroke="#0D2946" stroke-width="4" mask="url(#path-8-inside-1)"/>
    <path d="M11.9721 11.0573H10.1436V12.8859H11.9721V11.0573Z" fill="#0D2946"/>
    <path d="M15.6284 11.0573H13.7998V12.8859H15.6284V11.0573Z" fill="#0D2946"/>
    <path d="M19.2856 11.0573H17.457V12.8859H19.2856V11.0573Z" fill="#0D2946"/>
    <path d="M11.9721 14.7142H10.1436V16.5428H11.9721V14.7142Z" fill="#0D2946"/>
    <path d="M15.6284 14.7142H13.7998V16.5428H15.6284V14.7142Z" fill="#0D2946"/>
    <path d="M19.2856 14.7142H17.457V16.5428H19.2856V14.7142Z" fill="#0D2946"/>
</svg>