<svg width="48" height="48" viewBox="0 0 48 48" fill="none" xmlns="http://www.w3.org/2000/svg">
    <path fill-rule="evenodd" clip-rule="evenodd" d="M47.5 35H1.5V33H47.5V35Z" fill="#0D2946"/>
    <path fill-rule="evenodd" clip-rule="evenodd" d="M44 25H4C2.89543 25 2 25.8954 2 27V36C2 37.1046 2.89543 38 4 38H44C45.1046 38 46 37.1046 46 36V27C46 25.8954 45.1046 25 44 25ZM4 23C1.79086 23 0 24.7909 0 27V36C0 38.2091 1.79086 40 4 40H44C46.2091 40 48 38.2091 48 36V27C48 24.7909 46.2091 23 44 23H4Z" fill="#0D2946"/>
    <path fill-rule="evenodd" clip-rule="evenodd" d="M5 14C5 10.6863 7.68629 8 11 8H37C40.3137 8 43 10.6863 43 14V24H41V14C41 11.7909 39.2091 10 37 10H11C8.79086 10 7 11.7909 7 14V24H5V14Z" fill="#0D2946"/>
    <path fill-rule="evenodd" clip-rule="evenodd" d="M8 18C8 16.3431 9.34315 15 11 15H20C21.6569 15 23 16.3431 23 18V23H21V18C21 17.4477 20.5523 17 20 17H11C10.4477 17 10 17.4477 10 18V23H8V18Z" fill="#0D2946"/>
    <path fill-rule="evenodd" clip-rule="evenodd" d="M25 18C25 16.3431 26.3431 15 28 15H37C38.6569 15 40 16.3431 40 18V23H38V18C38 17.4477 37.5523 17 37 17H28C27.4477 17 27 17.4477 27 18V23H25V18Z" fill="#0D2946"/>
</svg>