<svg width="24" height="24" viewBox="0 0 24 24" fill="none" xmlns="http://www.w3.org/2000/svg">
<path d="M12.2969 1C8.03214 1 4.5625 4.46964 4.5625 8.73438C4.5625 10.1753 4.96164 11.5815 5.71703 12.8015L11.8566 22.6953C11.9742 22.8848 12.1814 23 12.4043 23C12.406 23 12.4076 23 12.4094 23C12.6341 22.9982 12.8418 22.8795 12.9572 22.6867L18.9403 12.697C19.654 11.5028 20.0312 10.1325 20.0312 8.73438C20.0312 4.46964 16.5616 1 12.2969 1ZM17.8341 12.0351L12.3945 21.1174L6.81264 12.1223C6.18388 11.1069 5.84297 9.93535 5.84297 8.73438C5.84297 5.18043 8.74293 2.28047 12.2969 2.28047C15.8508 2.28047 18.7465 5.18043 18.7465 8.73438C18.7465 9.89973 18.428 11.0413 17.8341 12.0351Z" fill="white" stroke="white" stroke-width="0.5"/>
<path d="M12.2969 4.86719C10.1645 4.86719 8.42969 6.60201 8.42969 8.73438C8.42969 10.8531 10.1363 12.6016 12.2969 12.6016C14.4841 12.6016 16.1641 10.8298 16.1641 8.73438C16.1641 6.60201 14.4292 4.86719 12.2969 4.86719ZM12.2969 11.3211C10.8679 11.3211 9.71016 10.1595 9.71016 8.73438C9.71016 7.3128 10.8753 6.14766 12.2969 6.14766C13.7185 6.14766 14.8793 7.3128 14.8793 8.73438C14.8793 10.1387 13.7485 11.3211 12.2969 11.3211Z" fill="white" stroke="white" stroke-width="0.5"/>
</svg>
