<svg width="24" height="24" viewBox="0 0 24 24" fill="none" xmlns="http://www.w3.org/2000/svg">
<path d="M14.7974 11.1782C16.6522 10.1789 17.9165 8.20608 17.9165 5.9376C17.9165 2.664 15.2822 5.71289e-07 12.0442 5.71289e-07C8.80608 5.71289e-07 6.17184 2.66304 6.17184 5.9376C6.17184 8.1936 7.42368 10.1587 9.26016 11.1629C3.96096 12.4214 -7.32422e-08 17.231 -7.32422e-08 22.967C-7.32422e-08 23.5373 0.459839 24 1.02432 24C1.5888 24 2.04864 23.5373 2.04864 22.967C2.04864 17.4154 6.5136 12.8976 12.001 12.8976C17.4883 12.8976 21.9533 17.4154 21.9533 22.967C21.9533 23.5373 22.4131 24 22.9776 24C23.5421 24 24.001 23.5373 24.001 22.967C24.001 17.2512 20.0678 12.4579 14.7974 11.1782ZM12.0442 2.06688C14.1523 2.06688 15.8669 3.80352 15.8669 5.9376C15.8669 8.07168 14.1523 9.80832 12.0442 9.80832C9.936 9.80832 8.22048 8.07168 8.22048 5.9376C8.22048 3.80352 9.936 2.06688 12.0442 2.06688Z" fill="white"/>
</svg>
