<svg width="24" height="24" viewBox="0 0 24 24" fill="none" xmlns="http://www.w3.org/2000/svg">
<path d="M21.4409 4.23625C20.4013 3.22118 18.9651 2.71387 17.1316 2.71387C16.6242 2.71387 16.1063 2.80185 15.5785 2.97772C15.0505 3.15372 14.5594 3.39116 14.1055 3.68989C13.6511 3.98852 13.2606 4.26897 12.933 4.5308C12.6057 4.79271 12.2946 5.07105 12 5.36561C11.7053 5.07105 11.3943 4.79271 11.067 4.5308C10.7395 4.26897 10.3488 3.9887 9.89447 3.68989C9.44022 3.39104 8.94911 3.15376 8.42124 2.97772C7.89341 2.80189 7.37565 2.71387 6.86824 2.71387C5.03484 2.71387 3.59855 3.22131 2.55915 4.23625C1.51974 5.2511 1 6.65875 1 8.45934C1 9.00773 1.09632 9.57266 1.28857 10.1535C1.48083 10.7346 1.69991 11.2298 1.9454 11.639C2.19085 12.0481 2.46919 12.447 2.78021 12.8358C3.09123 13.2246 3.31853 13.4925 3.46159 13.6398C3.60478 13.7872 3.71736 13.8937 3.79919 13.9592L11.4598 21.3499C11.6072 21.4972 11.7872 21.5711 12 21.5711C12.2127 21.5711 12.3929 21.4972 12.5402 21.3499L20.1886 13.9835C22.0629 12.1095 23 10.268 23 8.45917C23 6.65845 22.4803 5.25092 21.4409 4.23625ZM19.1205 12.8297L12 19.6923L4.86736 12.8173C3.33681 11.2871 2.57166 9.83419 2.57166 8.45917C2.57166 7.79632 2.65964 7.21105 2.83551 6.70373C3.01151 6.19633 3.23657 5.79311 3.51074 5.49439C3.78495 5.19558 4.11842 4.95229 4.51127 4.7639C4.90434 4.57569 5.28897 4.4488 5.6654 4.38335C6.04182 4.31799 6.4428 4.28527 6.86846 4.28527C7.29399 4.28527 7.75241 4.3895 8.24348 4.59827C8.73445 4.80695 9.18664 5.06886 9.59992 5.38392C10.0133 5.6992 10.3673 5.9938 10.662 6.26788C10.9566 6.54222 11.2021 6.79373 11.3985 7.02292C11.5458 7.20305 11.7464 7.29309 12.0001 7.29309C12.2538 7.29309 12.4542 7.20305 12.6016 7.02292C12.7981 6.79373 13.0437 6.54209 13.3383 6.26788C13.6329 5.9938 13.9869 5.69933 14.4001 5.38392C14.8135 5.06886 15.2657 4.80695 15.7569 4.59827C16.2478 4.38954 16.7064 4.28527 17.1319 4.28527C17.5575 4.28527 17.9583 4.31799 18.3349 4.38335C18.7115 4.44876 19.0961 4.57569 19.4891 4.7639C19.882 4.95224 20.2154 5.19571 20.4896 5.49439C20.7637 5.79311 20.9889 6.19633 21.1649 6.70373C21.3406 7.21105 21.4286 7.79632 21.4286 8.45917C21.4285 9.83419 20.6593 11.2912 19.1205 12.8297Z" fill="white" stroke="white" stroke-width="0.5"/>
</svg>
